<?xml version="1.0" standalone="no"?>
<!DOCTYPE svg PUBLIC "-//W3C//DTD SVG 20010904//EN"
 "http://www.w3.org/TR/2001/REC-SVG-20010904/DTD/svg10.dtd">
<svg version="1.0" xmlns="http://www.w3.org/2000/svg"
 width="200.000000pt" height="200.000000pt" viewBox="0 0 200.000000 200.000000"
 preserveAspectRatio="xMidYMid meet">
<metadata>
Created by potrace 1.14, written by Peter Selinger 2001-2017
</metadata>
<g transform="translate(0.000000,200.000000) scale(0.100000,-0.100000)"
fill="#000000" stroke="none">
<path d="M780 1764 c-44 -19 -59 -62 -56 -164 1 -62 7 -92 20 -112 38 -57 146
-54 181 5 27 46 27 188 0 234 -28 48 -84 62 -145 37z"/>
<path d="M229 1539 c-48 -24 -70 -77 -55 -131 10 -34 125 -145 160 -154 64
-16 136 39 136 105 0 41 -15 67 -76 127 -69 69 -109 82 -165 53z"/>
<path d="M1352 1547 c-36 -11 -151 -127 -153 -155 -8 -89 50 -152 126 -138 37
7 131 90 160 142 23 41 14 92 -23 126 -33 31 -67 39 -110 25z"/>
<path d="M721 1374 c-167 -44 -304 -195 -325 -357 -12 -87 -16 -226 -8 -248
l10 -24 -77 0 c-64 0 -83 -4 -121 -27 -95 -55 -141 -128 -142 -225 -1 -105 56
-198 151 -245 l46 -23 679 -1 c699 -2 727 0 818 39 90 38 180 133 222 234 15
37 20 71 20 148 1 92 -2 106 -31 167 -53 113 -146 195 -262 233 -58 19 -162
24 -222 12 -36 -7 -37 -7 -67 46 -16 29 -46 67 -65 84 -43 38 -130 79 -178 86
-20 2 -58 19 -84 37 -99 68 -248 95 -364 64z"/>
<path d="M72 1048 c-38 -10 -72 -58 -72 -101 0 -37 25 -83 53 -99 32 -17 185
-19 219 -1 75 37 82 144 12 189 -28 19 -158 26 -212 12z"/>
</g>
</svg>
